999
dxfrw 0.6.3
  0
SECTION
  2
HEADER
  9
$ACADVER
  1
AC1021
  9
$DWGCODEPAGE
  3
ANSI_1252
  9
$INSBASE
 10
0
 20
0
 30
0
  9
$EXTMIN
 10
-482.0818786561852
 20
-84.07240799399932
 30
0
  9
$EXTMAX
 10
609.5999999999999
 20
809.1245422832767
 30
0
  9
$LIMMIN
 10
0
 20
0
  9
$LIMMAX
 10
420
 20
297
  9
$ORTHOMODE
 70
    0
  9
$REGENMODE
 70
    1
  9
$FILLMODE
 70
    1
  9
$QTEXTMODE
 70
    0
  9
$MIRRTEXT
 70
    0
  9
$LTSCALE
 40
1
  9
$ATTMODE
 70
    0
  9
$TEXTSIZE
 40
2.5
  9
$TRACEWID
 40
15.68
  9
$TEXTSTYLE
  7
STANDARD
  9
$CLAYER
  8
vector
  9
$CELTYPE
  6
BYLAYER
  9
$CECOLOR
 62
  256
  9
$CELTSCALE
 40
1
  9
$DISPSILH
 70
    0
  9
$DIMSCALE
 40
2.5
  9
$DIMASZ
 40
2.5
  9
$DIMEXO
 40
0.625
  9
$DIMDLI
 40
3.75
  9
$DIMRND
 40
0
  9
$DIMDLE
 40
0
  9
$DIMEXE
 40
1.25
  9
$DIMTP
 40
0
  9
$DIMTM
 40
0
  9
$DIMTXT
 40
2.5
  9
$DIMCEN
 40
2.5
  9
$DIMTSZ
 40
0
  9
$DIMTOL
 70
    0
  9
$DIMLIM
 70
    0
  9
$DIMTIH
 70
    0
  9
$DIMTOH
 70
    0
  9
$DIMSE1
 70
    0
  9
$DIMSE2
 70
    0
  9
$DIMTAD
 70
    1
  9
$DIMZIN
 70
    8
  9
$DIMBLK
  1

  9
$DIMASO
 70
    1
  9
$DIMSHO
 70
    1
  9
$DIMPOST
  1

  9
$DIMAPOST
  1

  9
$DIMALT
 70
    0
  9
$DIMALTD
 70
    3
  9
$DIMALTF
 40
0.03937
  9
$DIMLFAC
 40
1
  9
$DIMTOFL
 70
    1
  9
$DIMTVP
 40
0
  9
$DIMTIX
 70
    0
  9
$DIMSOXD
 70
    0
  9
$DIMSAH
 70
    0
  9
$DIMBLK1
  1

  9
$DIMBLK2
  1

  9
$DIMSTYLE
  2
STANDARD
  9
$DIMCLRD
 70
    0
  9
$DIMCLRE
 70
    0
  9
$DIMCLRT
 70
    0
  9
$DIMTFAC
 40
1
  9
$DIMGAP
 40
0.625
  9
$DIMJUST
 70
    0
  9
$DIMSD1
 70
    0
  9
$DIMSD2
 70
    0
  9
$DIMTOLJ
 70
    0
  9
$DIMTZIN
 70
    8
  9
$DIMALTZ
 70
    0
  9
$DIMALTTZ
 70
    0
  9
$DIMUPT
 70
    0
  9
$DIMDEC
 70
    2
  9
$DIMTDEC
 70
    2
  9
$DIMALTU
 70
    2
  9
$DIMALTTD
 70
    3
  9
$DIMTXSTY
  7
STANDARD
  9
$DIMAUNIT
 70
    0
  9
$DIMADEC
 70
    0
  9
$DIMALTRND
 40
0
  9
$DIMAZIN
 70
    0
  9
$DIMDSEP
 70
   44
  9
$DIMATFIT
 70
    3
  9
$DIMFRAC
 70
    0
  9
$DIMLDRBLK
  1
STANDARD
  9
$DIMLUNIT
 70
    2
  9
$DIMLWD
 70
   -2
  9
$DIMLWE
 70
   -2
  9
$DIMTMOVE
 70
    0
  9
$DIMFXL
 40
1
  9
$DIMFXLON
 70
    0
  9
$DIMJOGANG
 40
0.7854
  9
$DIMTFILL
 70
    0
  9
$DIMTFILLCLR
 70
    0
  9
$DIMARCSYM
 70
    0
  9
$DIMLTYPE
  6

  9
$DIMLTEX1
  6

  9
$DIMLTEX2
  6

  9
$LUNITS
 70
    2
  9
$LUPREC
 70
    4
  9
$SKETCHINC
 40
1
  9
$FILLETRAD
 40
0
  9
$AUNITS
 70
    0
  9
$AUPREC
 70
    2
  9
$MENU
  1
.
  9
$ELEVATION
 40
0
  9
$PELEVATION
 40
0
  9
$THICKNESS
 40
0
  9
$LIMCHECK
 70
    0
  9
$CHAMFERA
 40
0
  9
$CHAMFERB
 40
0
  9
$CHAMFERC
 40
0
  9
$CHAMFERD
 40
0
  9
$SKPOLY
 70
    0
  9
$USRTIMER
 70
    1
  9
$ANGBASE
 50
0
  9
$ANGDIR
 70
    0
  9
$PDMODE
 70
   34
  9
$PDSIZE
 40
0
  9
$PLINEWID
 40
0
  9
$SPLFRAME
 70
    0
  9
$SPLINETYPE
 70
    2
  9
$SPLINESEGS
 70
    8
  9
$HANDSEED
  5
20000
  9
$SURFTAB1
 70
    6
  9
$SURFTAB2
 70
    6
  9
$SURFTYPE
 70
    6
  9
$SURFU
 70
    6
  9
$SURFV
 70
    6
  9
$UCSBASE
  2

  9
$UCSNAME
  2

  9
$UCSORG
 10
0
 20
0
 30
0
  9
$UCSXDIR
 10
1
 20
0
 30
0
  9
$UCSYDIR
 10
0
 20
1
 30
0
  9
$UCSORTHOREF
  2

  9
$UCSORTHOVIEW
 70
    0
  9
$UCSORGTOP
 10
0
 20
0
 30
0
  9
$UCSORGBOTTOM
 10
0
 20
0
 30
0
  9
$UCSORGLEFT
 10
0
 20
0
 30
0
  9
$UCSORGRIGHT
 10
0
 20
0
 30
0
  9
$UCSORGFRONT
 10
0
 20
0
 30
0
  9
$UCSORGBACK
 10
0
 20
0
 30
0
  9
$PUCSBASE
  2

  9
$PUCSNAME
  2

  9
$PUCSORG
 10
0
 20
0
 30
0
  9
$PUCSXDIR
 10
1
 20
0
 30
0
  9
$PUCSYDIR
 10
0
 20
1
 30
0
  9
$PUCSORTHOREF
  2

  9
$PUCSORTHOVIEW
 70
    0
  9
$PUCSORGTOP
 10
0
 20
0
 30
0
  9
$PUCSORGBOTTOM
 10
0
 20
0
 30
0
  9
$PUCSORGLEFT
 10
0
 20
0
 30
0
  9
$PUCSORGRIGHT
 10
0
 20
0
 30
0
  9
$PUCSORGFRONT
 10
0
 20
0
 30
0
  9
$PUCSORGBACK
 10
0
 20
0
 30
0
  9
$USERI1
 70
    0
  9
$USERI2
 70
    0
  9
$USERI3
 70
    0
  9
$USERI4
 70
    0
  9
$USERI5
 70
    0
  9
$USERR1
 40
0
  9
$USERR2
 40
0
  9
$USERR3
 40
0
  9
$USERR4
 40
0
  9
$USERR5
 40
0
  9
$WORLDVIEW
 70
    1
  9
$SHADEDGE
 70
    3
  9
$SHADEDIF
 70
   70
  9
$TILEMODE
 70
    1
  9
$MAXACTVP
 70
   64
  9
$PINSBASE
 10
0
 20
0
 30
0
  9
$PLIMCHECK
 70
    0
  9
$PEXTMIN
 10
0
 20
0
 30
0
  9
$PEXTMAX
 10
0
 20
0
 30
0
  9
$GRIDMODE
 70
    1
  9
$SNAPSTYLE
 70
    0
  9
$PLIMMIN
 10
0
 20
0
  9
$PLIMMAX
 10
210
 20
297
  9
$UNITMODE
 70
    0
  9
$VISRETAIN
 70
    1
  9
$PLINEGEN
 70
    0
  9
$PSLTSCALE
 70
    1
  9
$TREEDEPTH
 70
 3020
  9
$CMLSTYLE
  2
Standard
  9
$CMLJUST
 70
    0
  9
$CMLSCALE
 40
20
  9
$PROXYGRAPHICS
 70
    1
  9
$MEASUREMENT
 70
    1
  9
$CELWEIGHT
370
   -1
  9
$ENDCAPS
280
    0
  9
$JOINSTYLE
280
    0
  9
$LWDISPLAY
290
    0
  9
$INSUNITS
 70
    4
  9
$HYPERLINKBASE
  1

  9
$STYLESHEET
  1

  9
$XEDIT
290
    1
  9
$CEPSNTYPE
380
    0
  9
$PSTYLEMODE
290
    1
  9
$EXTNAMES
290
    1
  9
$PSVPSCALE
 40
1
  9
$OLESTARTUP
290
    0
  9
$SORTENTS
280
  127
  9
$INDEXCTL
280
    0
  9
$HIDETEXT
280
    1
  9
$XCLIPFRAME
290
    0
  9
$HALOGAP
280
    0
  9
$OBSCOLOR
 70
  257
  9
$OBSLTYPE
280
    0
  9
$INTERSECTIONDISPLAY
280
    0
  9
$INTERSECTIONCOLOR
 70
  257
  9
$DIMASSOC
280
    1
  9
$PROJECTNAME
  1

  9
$CAMERADISPLAY
290
    0
  9
$LENSLENGTH
 40
50
  9
$CAMERAHEIGHT
 40
0
  9
$STEPSPERSEC
 40
2
  9
$STEPSIZE
 40
50
  9
$3DDWFPREC
 40
2
  9
$PSOLWIDTH
 40
5
  9
$PSOLHEIGHT
 40
80
  9
$LOFTANG1
 40
1.570796326794897
  9
$LOFTANG2
 40
1.570796326794897
  9
$LOFTMAG1
 40
0
  9
$LOFTMAG2
 40
0
  9
$LOFTPARAM
 70
    7
  9
$LOFTNORMALS
280
    1
  9
$LATITUDE
 40
1
  9
$LONGITUDE
 40
1
  9
$NORTHDIRECTION
 40
0
  9
$TIMEZONE
 70
-8000
  9
$LIGHTGLYPHDISPLAY
280
    1
  9
$TILEMODELIGHTSYNCH
280
    1
  9
$SOLIDHIST
280
    1
  9
$SHOWHIST
280
    1
  9
$DWFFRAME
280
    2
  9
$DGNFRAME
280
    0
  9
$REALWORLDSCALE
290
    1
  9
$INTERFERECOLOR
 62
    1
  9
$CSHADOW
280
    0
  9
$SHADOWPLANELOCATION
 40
0
  0
ENDSEC
  0
SECTION
  2
CLASSES
  0
ENDSEC
  0
SECTION
  2
TABLES
  0
TABLE
  2
VPORT
  5
8
330
0
100
AcDbSymbolTable
 70
    1
  0
VPORT
  5
31
330
2
100
AcDbSymbolTableRecord
100
AcDbViewportTableRecord
  2
*ACTIVE
 70
    0
 10
0
 20
0
 11
1
 21
1
 12
766.3944407222551
 22
385.4539766647856
 13
0
 23
0
 14
10
 24
10
 15
10
 25
10
 16
0
 26
0
 36
1
 17
0
 27
0
 37
0
 40
1011.929526560245
 41
1.975022301516503
 42
50
 43
0
 44
0
 50
0
 51
0
 71
    0
 72
  100
 73
    1
 74
    3
 75
    0
 76
    1
 77
    0
 78
    0
281
    0
 65
    1
110
0
120
0
130
0
111
1
121
0
131
0
112
0
122
1
132
0
 79
    0
146
0
348
10020
 60
    7
 61
    5
292
1
282
    1
141
0
142
0
 63
  250
421
3358443
  0
ENDTAB
  0
TABLE
  2
LTYPE
  5
5
330
0
100
AcDbSymbolTable
 70
    4
  0
LTYPE
  5
14
330
5
100
AcDbSymbolTableRecord
100
AcDbLinetypeTableRecord
  2
ByBlock
 70
    0
  3

 72
   65
 73
    0
 40
0
  0
LTYPE
  5
15
330
5
100
AcDbSymbolTableRecord
100
AcDbLinetypeTableRecord
  2
ByLayer
 70
    0
  3

 72
   65
 73
    0
 40
0
  0
LTYPE
  5
16
330
5
100
AcDbSymbolTableRecord
100
AcDbLinetypeTableRecord
  2
Continuous
 70
    0
  3
Solid line
 72
   65
 73
    0
 40
0
  0
LTYPE
  5
32
330
5
100
AcDbSymbolTableRecord
100
AcDbLinetypeTableRecord
  2
DOT
 70
    0
  3
Dot . . . . . . . . . . . . . . . . . . . . . .
 72
   65
 73
    2
 40
6.35
 49
0
 74
    0
 49
-6.35
 74
    0
  0
LTYPE
  5
33
330
5
100
AcDbSymbolTableRecord
100
AcDbLinetypeTableRecord
  2
DOTTINY
 70
    0
  3
Dot (.15x) .....................................
 72
   65
 73
    2
 40
0.9525
 49
0
 74
    0
 49
-0.9525
 74
    0
  0
LTYPE
  5
34
330
5
100
AcDbSymbolTableRecord
100
AcDbLinetypeTableRecord
  2
DOT2
 70
    0
  3
Dot (.5x) .....................................
 72
   65
 73
    2
 40
3.175
 49
0
 74
    0
 49
-3.175
 74
    0
  0
LTYPE
  5
35
330
5
100
AcDbSymbolTableRecord
100
AcDbLinetypeTableRecord
  2
DOTX2
 70
    0
  3
Dot (2x) .  .  .  .  .  .  .  .  .  .  .  .  .
 72
   65
 73
    2
 40
12.7
 49
0
 74
    0
 49
-12.7
 74
    0
  0
LTYPE
  5
36
330
5
100
AcDbSymbolTableRecord
100
AcDbLinetypeTableRecord
  2
DASHED
 70
    0
  3
Dashed _ _ _ _ _ _ _ _ _ _ _ _ _ _ _ _ _
 72
   65
 73
    2
 40
19.05
 49
12.7
 74
    0
 49
-6.35
 74
    0
  0
LTYPE
  5
37
330
5
100
AcDbSymbolTableRecord
100
AcDbLinetypeTableRecord
  2
DASHEDTINY
 70
    0
  3
Dashed (.15x) _ _ _ _ _ _ _ _ _ _ _ _ _ _ _ _ _
 72
   65
 73
    2
 40
2.8575
 49
1.905
 74
    0
 49
-0.9525
 74
    0
  0
LTYPE
  5
38
330
5
100
AcDbSymbolTableRecord
100
AcDbLinetypeTableRecord
  2
DASHED2
 70
    0
  3
Dashed (.5x) _ _ _ _ _ _ _ _ _ _ _ _ _ _ _ _ _
 72
   65
 73
    2
 40
9.524999999999999
 49
6.35
 74
    0
 49
-3.175
 74
    0
  0
LTYPE
  5
39
330
5
100
AcDbSymbolTableRecord
100
AcDbLinetypeTableRecord
  2
DASHEDX2
 70
    0
  3
Dashed (2x) ____  ____  ____  ____  ____  ___
 72
   65
 73
    2
 40
38.09999999999999
 49
25.4
 74
    0
 49
-12.7
 74
    0
  0
LTYPE
  5
3A
330
5
100
AcDbSymbolTableRecord
100
AcDbLinetypeTableRecord
  2
DASHDOT
 70
    0
  3
Dash dot __ . __ . __ . __ . __ . __ . __ . __
 72
   65
 73
    4
 40
25.4
 49
12.7
 74
    0
 49
-6.35
 74
    0
 49
0
 74
    0
 49
-6.35
 74
    0
  0
LTYPE
  5
3B
330
5
100
AcDbSymbolTableRecord
100
AcDbLinetypeTableRecord
  2
DASHDOTTINY
 70
    0
  3
Dash dot (.15x) _._._._._._._._._._._._._._._.
 72
   65
 73
    4
 40
3.81
 49
1.905
 74
    0
 49
-0.9525
 74
    0
 49
0
 74
    0
 49
-0.9525
 74
    0
  0
LTYPE
  5
3C
330
5
100
AcDbSymbolTableRecord
100
AcDbLinetypeTableRecord
  2
DASHDOT2
 70
    0
  3
Dash dot (.5x) _._._._._._._._._._._._._._._.
 72
   65
 73
    4
 40
12.7
 49
6.35
 74
    0
 49
-3.175
 74
    0
 49
0
 74
    0
 49
-3.175
 74
    0
  0
LTYPE
  5
3D
330
5
100
AcDbSymbolTableRecord
100
AcDbLinetypeTableRecord
  2
DASHDOTX2
 70
    0
  3
Dash dot (2x) ____  .  ____  .  ____  .  ___
 72
   65
 73
    4
 40
50.8
 49
25.4
 74
    0
 49
-12.7
 74
    0
 49
0
 74
    0
 49
-12.7
 74
    0
  0
LTYPE
  5
3E
330
5
100
AcDbSymbolTableRecord
100
AcDbLinetypeTableRecord
  2
DIVIDE
 70
    0
  3
Divide ____ . . ____ . . ____ . . ____ . . ____
 72
   65
 73
    6
 40
31.75
 49
12.7
 74
    0
 49
-6.35
 74
    0
 49
0
 74
    0
 49
-6.35
 74
    0
 49
0
 74
    0
 49
-6.35
 74
    0
  0
LTYPE
  5
3F
330
5
100
AcDbSymbolTableRecord
100
AcDbLinetypeTableRecord
  2
DIVIDETINY
 70
    0
  3
Divide (.15x) __..__..__..__..__..__..__..__.._
 72
   65
 73
    6
 40
4.7625
 49
1.905
 74
    0
 49
-0.9525
 74
    0
 49
0
 74
    0
 49
-0.9525
 74
    0
 49
0
 74
    0
 49
-0.9525
 74
    0
  0
LTYPE
  5
40
330
5
100
AcDbSymbolTableRecord
100
AcDbLinetypeTableRecord
  2
DIVIDE2
 70
    0
  3
Divide (.5x) __..__..__..__..__..__..__..__.._
 72
   65
 73
    6
 40
15.875
 49
6.35
 74
    0
 49
-3.175
 74
    0
 49
0
 74
    0
 49
-3.175
 74
    0
 49
0
 74
    0
 49
-3.175
 74
    0
  0
LTYPE
  5
41
330
5
100
AcDbSymbolTableRecord
100
AcDbLinetypeTableRecord
  2
DIVIDEX2
 70
    0
  3
Divide (2x) ________  .  .  ________  .  .  _
 72
   65
 73
    6
 40
63.5
 49
25.4
 74
    0
 49
-12.7
 74
    0
 49
0
 74
    0
 49
-12.7
 74
    0
 49
0
 74
    0
 49
-12.7
 74
    0
  0
LTYPE
  5
42
330
5
100
AcDbSymbolTableRecord
100
AcDbLinetypeTableRecord
  2
BORDER
 70
    0
  3
Border __ __ . __ __ . __ __ . __ __ . __ __ .
 72
   65
 73
    6
 40
44.45
 49
12.7
 74
    0
 49
-6.35
 74
    0
 49
12.7
 74
    0
 49
-6.35
 74
    0
 49
0
 74
    0
 49
-6.35
 74
    0
  0
LTYPE
  5
43
330
5
100
AcDbSymbolTableRecord
100
AcDbLinetypeTableRecord
  2
BORDERTINY
 70
    0
  3
Border (.15x) __.__.__.__.__.__.__.__.__.__.__.
 72
   65
 73
    6
 40
6.6675
 49
1.905
 74
    0
 49
-0.9525
 74
    0
 49
1.905
 74
    0
 49
-0.9525
 74
    0
 49
0
 74
    0
 49
-0.9525
 74
    0
  0
LTYPE
  5
44
330
5
100
AcDbSymbolTableRecord
100
AcDbLinetypeTableRecord
  2
BORDER2
 70
    0
  3
Border (.5x) __.__.__.__.__.__.__.__.__.__.__.
 72
   65
 73
    6
 40
22.225
 49
6.35
 74
    0
 49
-3.175
 74
    0
 49
6.35
 74
    0
 49
-3.175
 74
    0
 49
0
 74
    0
 49
-3.175
 74
    0
  0
LTYPE
  5
45
330
5
100
AcDbSymbolTableRecord
100
AcDbLinetypeTableRecord
  2
BORDERX2
 70
    0
  3
Border (2x) ____  ____  .  ____  ____  .  ___
 72
   65
 73
    6
 40
88.89999999999999
 49
25.4
 74
    0
 49
-12.7
 74
    0
 49
25.4
 74
    0
 49
-12.7
 74
    0
 49
0
 74
    0
 49
-12.7
 74
    0
  0
LTYPE
  5
46
330
5
100
AcDbSymbolTableRecord
100
AcDbLinetypeTableRecord
  2
CENTER
 70
    0
  3
Center ____ _ ____ _ ____ _ ____ _ ____ _ ____
 72
   65
 73
    4
 40
50.8
 49
31.75
 74
    0
 49
-6.35
 74
    0
 49
6.35
 74
    0
 49
-6.35
 74
    0
  0
LTYPE
  5
47
330
5
100
AcDbSymbolTableRecord
100
AcDbLinetypeTableRecord
  2
CENTERTINY
 70
    0
  3
Center (.15x) ___ _ ___ _ ___ _ ___ _ ___ _ ___
 72
   65
 73
    4
 40
7.619999999999999
 49
4.7625
 74
    0
 49
-0.9525
 74
    0
 49
0.9525
 74
    0
 49
-0.9525
 74
    0
  0
LTYPE
  5
48
330
5
100
AcDbSymbolTableRecord
100
AcDbLinetypeTableRecord
  2
CENTER2
 70
    0
  3
Center (.5x) ___ _ ___ _ ___ _ ___ _ ___ _ ___
 72
   65
 73
    4
 40
28.575
 49
19.05
 74
    0
 49
-3.175
 74
    0
 49
3.175
 74
    0
 49
-3.175
 74
    0
  0
LTYPE
  5
49
330
5
100
AcDbSymbolTableRecord
100
AcDbLinetypeTableRecord
  2
CENTERX2
 70
    0
  3
Center (2x) ________  __  ________  __  _____
 72
   65
 73
    4
 40
101.6
 49
63.5
 74
    0
 49
-12.7
 74
    0
 49
12.7
 74
    0
 49
-12.7
 74
    0
  0
ENDTAB
  0
TABLE
  2
LAYER
  5
2
330
0
100
AcDbSymbolTable
 70
    1
  0
LAYER
  5
10
330
2
100
AcDbSymbolTableRecord
100
AcDbLayerTableRecord
  2
0
 70
    0
 62
    7
  6
CONTINUOUS
370
    0
390
F
  0
LAYER
  5
4A
330
2
100
AcDbSymbolTableRecord
100
AcDbLayerTableRecord
  2
Sketch037
 70
    0
 62
    7
  6
CONTINUOUS
370
   -3
390
F
  0
LAYER
  5
4B
330
2
100
AcDbSymbolTableRecord
100
AcDbLayerTableRecord
  2
Sketch038
 70
    0
 62
    7
  6
CONTINUOUS
370
   -3
390
F
  0
LAYER
  5
4C
330
2
100
AcDbSymbolTableRecord
100
AcDbLayerTableRecord
  2
Sketch039
 70
    0
 62
    7
  6
CONTINUOUS
370
   -3
390
F
  0
LAYER
  5
4D
330
2
100
AcDbSymbolTableRecord
100
AcDbLayerTableRecord
  2
material
 70
    0
 62
    5
  6
CONTINUOUS
370
    0
390
F
  0
LAYER
  5
4E
330
2
100
AcDbSymbolTableRecord
100
AcDbLayerTableRecord
  2
none
 70
    0
 62
    7
  6
CONTINUOUS
370
   -3
390
F
  0
LAYER
  5
4F
330
2
100
AcDbSymbolTableRecord
100
AcDbLayerTableRecord
  2
vector
 70
    0
 62
    3
  6
CONTINUOUS
370
    0
390
F
  0
ENDTAB
  0
TABLE
  2
STYLE
  5
3
330
0
100
AcDbSymbolTable
 70
    3
  0
STYLE
  5
50
330
2
100
AcDbSymbolTableRecord
100
AcDbTextStyleTableRecord
  2
Standard
 70
    0
 40
0
 41
1
 50
0
 71
    0
 42
1
  3
txt
  4

  0
ENDTAB
  0
TABLE
  2
VIEW
  5
6
330
0
100
AcDbSymbolTable
 70
    0
  0
ENDTAB
  0
TABLE
  2
UCS
  5
7
330
0
100
AcDbSymbolTable
 70
    0
  0
ENDTAB
  0
TABLE
  2
APPID
  5
9
330
0
100
AcDbSymbolTable
 70
    1
  0
APPID
  5
12
330
9
100
AcDbSymbolTableRecord
100
AcDbRegAppTableRecord
  2
ACAD
 70
    0
  0
APPID
  5
51
330
9
100
AcDbSymbolTableRecord
100
AcDbRegAppTableRecord
  2
LibreCad
 70
    0
  0
ENDTAB
  0
TABLE
  2
DIMSTYLE
  5
A
330
0
100
AcDbSymbolTable
 70
    1
100
AcDbDimStyleTable
 71
    1
  0
DIMSTYLE
105
52
330
A
100
AcDbSymbolTableRecord
100
AcDbDimStyleTableRecord
  2
Standard
 70
    0
 40
2.5
 41
2.5
 42
0.625
 43
0.38
 44
1.25
 45
0
 46
0
 47
0
 48
0
 49
1
140
2.5
141
0.09
142
0
143
25.4
144
1
145
0
146
1
147
0.625
148
0
 71
    0
 72
    0
 73
    0
 74
    1
 75
    0
 76
    0
 77
    0
 78
    8
 79
    0
170
    0
171
    2
172
    0
173
    0
174
    0
175
    0
176
    0
177
    0
178
    0
179
    0
271
    2
272
    4
273
    2
274
    2
275
    0
276
    0
277
    2
278
   44
279
    0
280
    0
281
    0
282
    0
283
    1
284
    0
285
    0
286
    0
288
    0
289
    3
340
STANDARD
341

371
   -2
372
   -2
  0
ENDTAB
  0
TABLE
  2
BLOCK_RECORD
  5
1
330
0
100
AcDbSymbolTable
 70
    2
  0
BLOCK_RECORD
  5
1F
330
1
100
AcDbSymbolTableRecord
100
AcDbBlockTableRecord
  2
*Model_Space
 70
    0
280
    1
281
    0
  0
BLOCK_RECORD
  5
1E
330
1
100
AcDbSymbolTableRecord
100
AcDbBlockTableRecord
  2
*Paper_Space
 70
    0
280
    1
281
    0
  0
BLOCK_RECORD
  5
53
330
1
100
AcDbSymbolTableRecord
100
AcDbBlockTableRecord
  2
flow_section_top_gasket
 70
    0
280
    1
281
    0
  0
BLOCK_RECORD
  5
56
330
1
100
AcDbSymbolTableRecord
100
AcDbBlockTableRecord
  2
flow_section_top_gasket-0
 70
    0
280
    1
281
    0
  0
BLOCK_RECORD
  5
59
330
1
100
AcDbSymbolTableRecord
100
AcDbBlockTableRecord
  2
entrance_section_gasket
 70
    0
280
    1
281
    0
  0
BLOCK_RECORD
  5
5C
330
1
100
AcDbSymbolTableRecord
100
AcDbBlockTableRecord
  2
entrance_section_gasket-0
 70
    0
280
    1
281
    0
  0
BLOCK_RECORD
  5
5F
330
1
100
AcDbSymbolTableRecord
100
AcDbBlockTableRecord
  2
flow_section_bottom_gasket
 70
    0
280
    1
281
    0
  0
BLOCK_RECORD
  5
62
330
1
100
AcDbSymbolTableRecord
100
AcDbBlockTableRecord
  2
flow_section_bottom_gasket-0
 70
    0
280
    1
281
    0
  0
BLOCK_RECORD
  5
65
330
1
100
AcDbSymbolTableRecord
100
AcDbBlockTableRecord
  2
entrance_section_gasket-1
 70
    0
280
    1
281
    0
  0
BLOCK_RECORD
  5
68
330
1
100
AcDbSymbolTableRecord
100
AcDbBlockTableRecord
  2
entrance_section_gasket-2
 70
    0
280
    1
281
    0
  0
ENDTAB
  0
ENDSEC
  0
SECTION
  2
BLOCKS
  0
BLOCK
  5
20
330
1F
100
AcDbEntity
  8
0
100
AcDbBlockBegin
  2
*Model_Space
 70
    0
 10
0
 20
0
 30
0
  3
*Model_Space
  1

  0
ENDBLK
  5
21
330
1F
100
AcDbEntity
  8
0
100
AcDbBlockEnd
  0
BLOCK
  5
1C
330
1B
100
AcDbEntity
  8
0
100
AcDbBlockBegin
  2
*Paper_Space
 70
    0
 10
0
 20
0
 30
0
  3
*Paper_Space
  1

  0
ENDBLK
  5
1D
330
1F
100
AcDbEntity
  8
0
100
AcDbBlockEnd
  0
BLOCK
  5
54
330
53
100
AcDbEntity
  8
0
100
AcDbBlockBegin
  2
flow_section_top_gasket
 70
    0
 10
0
 20
0
  3
flow_section_top_gasket
  1

  0
LINE
  5
6B
100
AcDbEntity
  8
Sketch037
  6
ByLayer
 62
  256
370
   -1
100
AcDbLine
 10
-58.5
 20
180
 11
-58.5
 21
-180
  0
LINE
  5
6C
100
AcDbEntity
  8
Sketch037
  6
ByLayer
 62
  256
370
   -1
100
AcDbLine
 10
-58.5
 20
-180
 11
58.5
 21
-180
  0
LINE
  5
6D
100
AcDbEntity
  8
Sketch037
  6
ByLayer
 62
  256
370
   -1
100
AcDbLine
 10
58.5
 20
-180
 11
58.5
 21
180
  0
LINE
  5
6E
100
AcDbEntity
  8
Sketch037
  6
ByLayer
 62
  256
370
   -1
100
AcDbLine
 10
58.5
 20
180
 11
-58.5
 21
180
  0
CIRCLE
  5
6F
100
AcDbEntity
  8
Sketch037
  6
ByLayer
 62
  256
370
   -1
100
AcDbCircle
 10
-67.7
 20
-187.7
 40
1.8669
  0
CIRCLE
  5
70
100
AcDbEntity
  8
Sketch037
  6
ByLayer
 62
  256
370
   -1
100
AcDbCircle
 10
67.69999999999999
 20
-187.7
 40
1.8669
  0
CIRCLE
  5
71
100
AcDbEntity
  8
Sketch037
  6
ByLayer
 62
  256
370
   -1
100
AcDbCircle
 10
-67.7
 20
-62.56669999999997
 40
1.8669
  0
CIRCLE
  5
72
100
AcDbEntity
  8
Sketch037
  6
ByLayer
 62
  256
370
   -1
100
AcDbCircle
 10
67.69999999999999
 20
-62.56669999999997
 40
1.8669
  0
CIRCLE
  5
73
100
AcDbEntity
  8
Sketch037
  6
ByLayer
 62
  256
370
   -1
100
AcDbCircle
 10
67.69999999999999
 20
62.5667
 40
1.8669
  0
CIRCLE
  5
74
100
AcDbEntity
  8
Sketch037
  6
ByLayer
 62
  256
370
   -1
100
AcDbCircle
 10
-67.7
 20
62.5667
 40
1.8669
  0
CIRCLE
  5
75
100
AcDbEntity
  8
Sketch037
  6
ByLayer
 62
  256
370
   -1
100
AcDbCircle
 10
-67.7
 20
187.7
 40
1.8669
  0
CIRCLE
  5
76
100
AcDbEntity
  8
Sketch037
  6
ByLayer
 62
  256
370
   -1
100
AcDbCircle
 10
67.69999999999999
 20
187.7
 40
1.8669
  0
LINE
  5
77
100
AcDbEntity
  8
Sketch037
  6
ByLayer
 62
  256
370
   -1
100
AcDbLine
 10
73
 20
-194
 11
-73
 21
-194
  0
ARC
  5
78
100
AcDbEntity
  8
Sketch037
  6
ByLayer
 62
  256
370
   -1
100
AcDbCircle
 10
-73
 20
-193
 40
1
100
AcDbArc
 50
180
 51
-90
  0
LINE
  5
79
100
AcDbEntity
  8
Sketch037
  6
ByLayer
 62
  256
370
   -1
100
AcDbLine
 10
-74
 20
-193
 11
-74
 21
193
  0
ARC
  5
7A
100
AcDbEntity
  8
Sketch037
  6
ByLayer
 62
  256
370
   -1
100
AcDbCircle
 10
-73
 20
193
 40
1
100
AcDbArc
 50
90
 51
180
  0
LINE
  5
7B
100
AcDbEntity
  8
Sketch037
  6
ByLayer
 62
  256
370
   -1
100
AcDbLine
 10
-73
 20
194
 11
73
 21
194
  0
ARC
  5
7C
100
AcDbEntity
  8
Sketch037
  6
ByLayer
 62
  256
370
   -1
100
AcDbCircle
 10
73
 20
193
 40
1
100
AcDbArc
 50
0
 51
90
  0
LINE
  5
7D
100
AcDbEntity
  8
Sketch037
  6
ByLayer
 62
  256
370
   -1
100
AcDbLine
 10
74
 20
193
 11
74
 21
-193
  0
ARC
  5
7E
100
AcDbEntity
  8
Sketch037
  6
ByLayer
 62
  256
370
   -1
100
AcDbCircle
 10
73
 20
-193
 40
1
100
AcDbArc
 50
-90
 51
0
  0
ENDBLK
  5
55
330
53
100
AcDbEntity
  8
0
100
AcDbBlockEnd
  0
BLOCK
  5
57
330
56
100
AcDbEntity
  8
0
100
AcDbBlockBegin
  2
flow_section_top_gasket-0
 70
    0
 10
0
 20
0
  3
flow_section_top_gasket-0
  1

  0
LINE
  5
7F
100
AcDbEntity
  8
Sketch037
  6
ByLayer
 62
  256
370
   -1
100
AcDbLine
 10
-58.5
 20
180
 11
-58.5
 21
-180
  0
LINE
  5
80
100
AcDbEntity
  8
Sketch037
  6
ByLayer
 62
  256
370
   -1
100
AcDbLine
 10
-58.5
 20
-180
 11
58.5
 21
-180
  0
LINE
  5
81
100
AcDbEntity
  8
Sketch037
  6
ByLayer
 62
  256
370
   -1
100
AcDbLine
 10
58.5
 20
-180
 11
58.5
 21
180
  0
LINE
  5
82
100
AcDbEntity
  8
Sketch037
  6
ByLayer
 62
  256
370
   -1
100
AcDbLine
 10
58.5
 20
180
 11
-58.5
 21
180
  0
CIRCLE
  5
83
100
AcDbEntity
  8
Sketch037
  6
ByLayer
 62
  256
370
   -1
100
AcDbCircle
 10
-67.69999999999999
 20
-187.7
 40
1.8669
  0
CIRCLE
  5
84
100
AcDbEntity
  8
Sketch037
  6
ByLayer
 62
  256
370
   -1
100
AcDbCircle
 10
67.69999999999999
 20
-187.7
 40
1.8669
  0
CIRCLE
  5
85
100
AcDbEntity
  8
Sketch037
  6
ByLayer
 62
  256
370
   -1
100
AcDbCircle
 10
-67.69999999999999
 20
-62.56670000000003
 40
1.8669
  0
CIRCLE
  5
86
100
AcDbEntity
  8
Sketch037
  6
ByLayer
 62
  256
370
   -1
100
AcDbCircle
 10
67.69999999999999
 20
-62.56670000000003
 40
1.8669
  0
CIRCLE
  5
87
100
AcDbEntity
  8
Sketch037
  6
ByLayer
 62
  256
370
   -1
100
AcDbCircle
 10
67.69999999999999
 20
62.5667
 40
1.8669
  0
CIRCLE
  5
88
100
AcDbEntity
  8
Sketch037
  6
ByLayer
 62
  256
370
   -1
100
AcDbCircle
 10
-67.69999999999999
 20
62.5667
 40
1.8669
  0
CIRCLE
  5
89
100
AcDbEntity
  8
Sketch037
  6
ByLayer
 62
  256
370
   -1
100
AcDbCircle
 10
-67.69999999999999
 20
187.7
 40
1.8669
  0
CIRCLE
  5
8A
100
AcDbEntity
  8
Sketch037
  6
ByLayer
 62
  256
370
   -1
100
AcDbCircle
 10
67.69999999999999
 20
187.7
 40
1.8669
  0
LINE
  5
8B
100
AcDbEntity
  8
Sketch037
  6
ByLayer
 62
  256
370
   -1
100
AcDbLine
 10
73
 20
-194
 11
-73
 21
-194
  0
ARC
  5
8C
100
AcDbEntity
  8
Sketch037
  6
ByLayer
 62
  256
370
   -1
100
AcDbCircle
 10
-73
 20
-193
 40
1
100
AcDbArc
 50
180
 51
-90
  0
LINE
  5
8D
100
AcDbEntity
  8
Sketch037
  6
ByLayer
 62
  256
370
   -1
100
AcDbLine
 10
-74
 20
-193
 11
-74
 21
193
  0
ARC
  5
8E
100
AcDbEntity
  8
Sketch037
  6
ByLayer
 62
  256
370
   -1
100
AcDbCircle
 10
-73
 20
193
 40
1
100
AcDbArc
 50
90
 51
180
  0
LINE
  5
8F
100
AcDbEntity
  8
Sketch037
  6
ByLayer
 62
  256
370
   -1
100
AcDbLine
 10
-73
 20
194
 11
73
 21
194
  0
ARC
  5
90
100
AcDbEntity
  8
Sketch037
  6
ByLayer
 62
  256
370
   -1
100
AcDbCircle
 10
73
 20
193
 40
1
100
AcDbArc
 50
0
 51
90
  0
LINE
  5
91
100
AcDbEntity
  8
Sketch037
  6
ByLayer
 62
  256
370
   -1
100
AcDbLine
 10
74
 20
193
 11
74
 21
-193
  0
ARC
  5
92
100
AcDbEntity
  8
Sketch037
  6
ByLayer
 62
  256
370
   -1
100
AcDbCircle
 10
73
 20
-193
 40
1
100
AcDbArc
 50
-90
 51
0
  0
ENDBLK
  5
58
330
56
100
AcDbEntity
  8
0
100
AcDbBlockEnd
  0
BLOCK
  5
5A
330
59
100
AcDbEntity
  8
0
100
AcDbBlockBegin
  2
entrance_section_gasket
 70
    0
 10
0
 20
0
  3
entrance_section_gasket
  1

  0
CIRCLE
  5
93
100
AcDbEntity
  8
Sketch039
  6
ByLayer
 62
  256
370
   -1
100
AcDbCircle
 10
0
 20
7.300000000000011
 40
1.8669
  0
CIRCLE
  5
94
100
AcDbEntity
  8
Sketch039
  6
ByLayer
 62
  256
370
   -1
100
AcDbCircle
 10
-67.69999999999999
 20
97.90000000000001
 40
1.8669
  0
CIRCLE
  5
95
100
AcDbEntity
  8
Sketch039
  6
ByLayer
 62
  256
370
   -1
100
AcDbCircle
 10
67.69999999999999
 20
97.90000000000001
 40
1.8669
  0
ARC
  5
96
100
AcDbEntity
  8
Sketch039
  6
ByLayer
 62
  256
370
   -1
100
AcDbCircle
 10
-56.49999999999994
 20
86.7
 40
2
100
AcDbArc
 50
90
 51
180
  0
LINE
  5
97
100
AcDbEntity
  8
Sketch039
  6
ByLayer
 62
  256
370
   -1
100
AcDbLine
 10
-56.49999999999994
 20
88.7
 11
56.5
 21
88.7
  0
ARC
  5
98
100
AcDbEntity
  8
Sketch039
  6
ByLayer
 62
  256
370
   -1
100
AcDbCircle
 10
56.5
 20
86.7
 40
2
100
AcDbArc
 50
0
 51
90
  0
LINE
  5
99
100
AcDbEntity
  8
Sketch039
  6
ByLayer
 62
  256
370
   -1
100
AcDbLine
 10
58.5
 20
86.7
 11
58.5
 21
60.8458
  0
ARC
  5
9A
100
AcDbEntity
  8
Sketch039
  6
ByLayer
 62
  256
370
   -1
100
AcDbCircle
 10
48.5
 20
60.8458
 40
10
100
AcDbArc
 50
-56.3144
 51
0
  0
LINE
  5
9B
100
AcDbEntity
  8
Sketch039
  6
ByLayer
 62
  256
370
   -1
100
AcDbLine
 10
5.546359999999993
 20
20.1969
 11
54.04640000000001
 21
52.5248
  0
ARC
  5
9C
100
AcDbEntity
  8
Sketch039
  6
ByLayer
 62
  256
370
   -1
100
AcDbCircle
 10
0
 20
28.5179
 40
10
100
AcDbArc
 50
-123.686
 51
-56.3144
  0
LINE
  5
9D
100
AcDbEntity
  8
Sketch039
  6
ByLayer
 62
  256
370
   -1
100
AcDbLine
 10
-5.546359999999993
 20
20.1969
 11
-54.04640000000001
 21
52.5248
  0
ARC
  5
9E
100
AcDbEntity
  8
Sketch039
  6
ByLayer
 62
  256
370
   -1
100
AcDbCircle
 10
-48.49999999999994
 20
60.8458
 40
10
100
AcDbArc
 50
180
 51
-123.686
  0
LINE
  5
9F
100
AcDbEntity
  8
Sketch039
  6
ByLayer
 62
  256
370
   -1
100
AcDbLine
 10
-58.49999999999994
 20
86.7
 11
-58.49999999999994
 21
60.8458
  0
LINE
  5
A0
100
AcDbEntity
  8
Sketch039
  6
ByLayer
 62
  256
370
   -1
100
AcDbLine
 10
-73.99999999999994
 20
51.86679999999998
 11
-73.99999999999994
 21
103.2
  0
ARC
  5
A1
100
AcDbEntity
  8
Sketch039
  6
ByLayer
 62
  256
370
   -1
100
AcDbCircle
 10
-72.99999999999994
 20
103.2
 40
1
100
AcDbArc
 50
90
 51
180
  0
LINE
  5
A2
100
AcDbEntity
  8
Sketch039
  6
ByLayer
 62
  256
370
   -1
100
AcDbLine
 10
-72.99999999999994
 20
104.2
 11
73
 21
104.2
  0
ARC
  5
A3
100
AcDbEntity
  8
Sketch039
  6
ByLayer
 62
  256
370
   -1
100
AcDbCircle
 10
73
 20
103.2
 40
1
100
AcDbArc
 50
0
 51
90
  0
LINE
  5
A4
100
AcDbEntity
  8
Sketch039
  6
ByLayer
 62
  256
370
   -1
100
AcDbLine
 10
74
 20
103.2
 11
74
 21
51.86679999999998
  0
ARC
  5
A5
100
AcDbEntity
  8
Sketch039
  6
ByLayer
 62
  256
370
   -1
100
AcDbCircle
 10
65
 20
51.86679999999998
 40
9
100
AcDbArc
 50
-58.31860000000001
 51
-4.52346e-14
  0
LINE
  5
A6
100
AcDbEntity
  8
Sketch039
  6
ByLayer
 62
  256
370
   -1
100
AcDbLine
 10
69.72679999999997
 20
44.2079
 11
4.726760000000013
 21
4.092289999999991
  0
ARC
  5
A7
100
AcDbEntity
  8
Sketch039
  6
ByLayer
 62
  256
370
   -1
100
AcDbCircle
 10
0
 20
11.75110000000001
 40
9
100
AcDbArc
 50
-121.681
 51
-58.31860000000001
  0
LINE
  5
A8
100
AcDbEntity
  8
Sketch039
  6
ByLayer
 62
  256
370
   -1
100
AcDbLine
 10
-69.72679999999997
 20
44.2079
 11
-4.726760000000013
 21
4.092289999999991
  0
ARC
  5
A9
100
AcDbEntity
  8
Sketch039
  6
ByLayer
 62
  256
370
   -1
100
AcDbCircle
 10
-64.99999999999994
 20
51.86679999999998
 40
9
100
AcDbArc
 50
180
 51
-121.681
  0
ENDBLK
  5
5B
330
59
100
AcDbEntity
  8
0
100
AcDbBlockEnd
  0
BLOCK
  5
5D
330
5C
100
AcDbEntity
  8
0
100
AcDbBlockBegin
  2
entrance_section_gasket-0
 70
    0
 10
0
 20
0
  3
entrance_section_gasket-0
  1

  0
CIRCLE
  5
AA
100
AcDbEntity
  8
Sketch039
  6
ByLayer
 62
  256
370
   -1
100
AcDbCircle
 10
0
 20
7.299999999999997
 40
1.8669
  0
CIRCLE
  5
AB
100
AcDbEntity
  8
Sketch039
  6
ByLayer
 62
  256
370
   -1
100
AcDbCircle
 10
-67.69999999999999
 20
97.90000000000001
 40
1.8669
  0
CIRCLE
  5
AC
100
AcDbEntity
  8
Sketch039
  6
ByLayer
 62
  256
370
   -1
100
AcDbCircle
 10
67.69999999999999
 20
97.90000000000001
 40
1.8669
  0
ARC
  5
AD
100
AcDbEntity
  8
Sketch039
  6
ByLayer
 62
  256
370
   -1
100
AcDbCircle
 10
-56.50000000000006
 20
86.7
 40
2
100
AcDbArc
 50
90
 51
180
  0
LINE
  5
AE
100
AcDbEntity
  8
Sketch039
  6
ByLayer
 62
  256
370
   -1
100
AcDbLine
 10
-56.50000000000006
 20
88.7
 11
56.5
 21
88.7
  0
ARC
  5
AF
100
AcDbEntity
  8
Sketch039
  6
ByLayer
 62
  256
370
   -1
100
AcDbCircle
 10
56.5
 20
86.7
 40
2
100
AcDbArc
 50
0
 51
90
  0
LINE
  5
B0
100
AcDbEntity
  8
Sketch039
  6
ByLayer
 62
  256
370
   -1
100
AcDbLine
 10
58.5
 20
86.7
 11
58.5
 21
60.8458
  0
ARC
  5
B1
100
AcDbEntity
  8
Sketch039
  6
ByLayer
 62
  256
370
   -1
100
AcDbCircle
 10
48.5
 20
60.8458
 40
10
100
AcDbArc
 50
-56.3144
 51
0
  0
LINE
  5
B2
100
AcDbEntity
  8
Sketch039
  6
ByLayer
 62
  256
370
   -1
100
AcDbLine
 10
5.546359999999993
 20
20.1969
 11
54.04640000000001
 21
52.5248
  0
ARC
  5
B3
100
AcDbEntity
  8
Sketch039
  6
ByLayer
 62
  256
370
   -1
100
AcDbCircle
 10
0
 20
28.5179
 40
10
100
AcDbArc
 50
-123.686
 51
-56.3144
  0
LINE
  5
B4
100
AcDbEntity
  8
Sketch039
  6
ByLayer
 62
  256
370
   -1
100
AcDbLine
 10
-5.546359999999993
 20
20.1969
 11
-54.04640000000001
 21
52.5248
  0
ARC
  5
B5
100
AcDbEntity
  8
Sketch039
  6
ByLayer
 62
  256
370
   -1
100
AcDbCircle
 10
-48.50000000000006
 20
60.8458
 40
10
100
AcDbArc
 50
180
 51
-123.686
  0
LINE
  5
B6
100
AcDbEntity
  8
Sketch039
  6
ByLayer
 62
  256
370
   -1
100
AcDbLine
 10
-58.50000000000006
 20
86.7
 11
-58.50000000000006
 21
60.8458
  0
LINE
  5
B7
100
AcDbEntity
  8
Sketch039
  6
ByLayer
 62
  256
370
   -1
100
AcDbLine
 10
-74.00000000000006
 20
51.8668
 11
-74.00000000000006
 21
103.2
  0
ARC
  5
B8
100
AcDbEntity
  8
Sketch039
  6
ByLayer
 62
  256
370
   -1
100
AcDbCircle
 10
-73.00000000000006
 20
103.2
 40
1
100
AcDbArc
 50
90
 51
180
  0
LINE
  5
B9
100
AcDbEntity
  8
Sketch039
  6
ByLayer
 62
  256
370
   -1
100
AcDbLine
 10
-73.00000000000006
 20
104.2
 11
73
 21
104.2
  0
ARC
  5
BA
100
AcDbEntity
  8
Sketch039
  6
ByLayer
 62
  256
370
   -1
100
AcDbCircle
 10
73
 20
103.2
 40
1
100
AcDbArc
 50
0
 51
90
  0
LINE
  5
BB
100
AcDbEntity
  8
Sketch039
  6
ByLayer
 62
  256
370
   -1
100
AcDbLine
 10
74
 20
103.2
 11
74
 21
51.8668
  0
ARC
  5
BC
100
AcDbEntity
  8
Sketch039
  6
ByLayer
 62
  256
370
   -1
100
AcDbCircle
 10
65
 20
51.8668
 40
9
100
AcDbArc
 50
-58.31860000000001
 51
-4.52346e-14
  0
LINE
  5
BD
100
AcDbEntity
  8
Sketch039
  6
ByLayer
 62
  256
370
   -1
100
AcDbLine
 10
69.72679999999997
 20
44.2079
 11
4.726760000000013
 21
4.092290000000006
  0
ARC
  5
BE
100
AcDbEntity
  8
Sketch039
  6
ByLayer
 62
  256
370
   -1
100
AcDbCircle
 10
0
 20
11.75109999999999
 40
9
100
AcDbArc
 50
-121.681
 51
-58.31860000000001
  0
LINE
  5
BF
100
AcDbEntity
  8
Sketch039
  6
ByLayer
 62
  256
370
   -1
100
AcDbLine
 10
-69.72679999999997
 20
44.2079
 11
-4.726760000000013
 21
4.092290000000006
  0
ARC
  5
C0
100
AcDbEntity
  8
Sketch039
  6
ByLayer
 62
  256
370
   -1
100
AcDbCircle
 10
-65.00000000000006
 20
51.8668
 40
9
100
AcDbArc
 50
180
 51
-121.681
  0
ENDBLK
  5
5E
330
5C
100
AcDbEntity
  8
0
100
AcDbBlockEnd
  0
BLOCK
  5
60
330
5F
100
AcDbEntity
  8
0
100
AcDbBlockBegin
  2
flow_section_bottom_gasket
 70
    0
 10
0
 20
0
  3
flow_section_bottom_gasket
  1

  0
LINE
  5
C1
100
AcDbEntity
  8
Sketch038
  6
ByLayer
 62
  256
370
   -1
100
AcDbLine
 10
-58.5
 20
180
 11
-58.5
 21
-180
  0
LINE
  5
C2
100
AcDbEntity
  8
Sketch038
  6
ByLayer
 62
  256
370
   -1
100
AcDbLine
 10
-58.5
 20
-180
 11
58.49999999999999
 21
-180
  0
LINE
  5
C3
100
AcDbEntity
  8
Sketch038
  6
ByLayer
 62
  256
370
   -1
100
AcDbLine
 10
58.49999999999999
 20
-180
 11
58.49999999999999
 21
180
  0
LINE
  5
C4
100
AcDbEntity
  8
Sketch038
  6
ByLayer
 62
  256
370
   -1
100
AcDbLine
 10
58.49999999999999
 20
180
 11
-58.5
 21
180
  0
CIRCLE
  5
C5
100
AcDbEntity
  8
Sketch038
  6
ByLayer
 62
  256
370
   -1
100
AcDbCircle
 10
-67.7
 20
-227.7
 40
1.8669
  0
CIRCLE
  5
C6
100
AcDbEntity
  8
Sketch038
  6
ByLayer
 62
  256
370
   -1
100
AcDbCircle
 10
67.7
 20
-227.7
 40
1.8669
  0
CIRCLE
  5
C7
100
AcDbEntity
  8
Sketch038
  6
ByLayer
 62
  256
370
   -1
100
AcDbCircle
 10
-67.7
 20
-75.90000000000001
 40
1.8669
  0
CIRCLE
  5
C8
100
AcDbEntity
  8
Sketch038
  6
ByLayer
 62
  256
370
   -1
100
AcDbCircle
 10
67.7
 20
-75.90000000000001
 40
1.8669
  0
CIRCLE
  5
C9
100
AcDbEntity
  8
Sketch038
  6
ByLayer
 62
  256
370
   -1
100
AcDbCircle
 10
-67.7
 20
75.90000000000001
 40
1.8669
  0
CIRCLE
  5
CA
100
AcDbEntity
  8
Sketch038
  6
ByLayer
 62
  256
370
   -1
100
AcDbCircle
 10
67.7
 20
75.90000000000001
 40
1.8669
  0
CIRCLE
  5
CB
100
AcDbEntity
  8
Sketch038
  6
ByLayer
 62
  256
370
   -1
100
AcDbCircle
 10
-67.7
 20
227.7
 40
1.8669
  0
CIRCLE
  5
CC
100
AcDbEntity
  8
Sketch038
  6
ByLayer
 62
  256
370
   -1
100
AcDbCircle
 10
67.7
 20
227.7
 40
1.8669
  0
ARC
  5
CD
100
AcDbEntity
  8
Sketch038
  6
ByLayer
 62
  256
370
   -1
100
AcDbCircle
 10
-73
 20
233
 40
1
100
AcDbArc
 50
90
 51
180
  0
LINE
  5
CE
100
AcDbEntity
  8
Sketch038
  6
ByLayer
 62
  256
370
   -1
100
AcDbLine
 10
-74
 20
233
 11
-74
 21
-233
  0
ARC
  5
CF
100
AcDbEntity
  8
Sketch038
  6
ByLayer
 62
  256
370
   -1
100
AcDbCircle
 10
-73
 20
-233
 40
1
100
AcDbArc
 50
180
 51
-90
  0
LINE
  5
D0
100
AcDbEntity
  8
Sketch038
  6
ByLayer
 62
  256
370
   -1
100
AcDbLine
 10
-73
 20
-234
 11
72.99999999999999
 21
-234
  0
ARC
  5
D1
100
AcDbEntity
  8
Sketch038
  6
ByLayer
 62
  256
370
   -1
100
AcDbCircle
 10
72.99999999999999
 20
-233
 40
1
100
AcDbArc
 50
-90
 51
0
  0
LINE
  5
D2
100
AcDbEntity
  8
Sketch038
  6
ByLayer
 62
  256
370
   -1
100
AcDbLine
 10
73.99999999999999
 20
-233
 11
73.99999999999999
 21
233
  0
ARC
  5
D3
100
AcDbEntity
  8
Sketch038
  6
ByLayer
 62
  256
370
   -1
100
AcDbCircle
 10
72.99999999999999
 20
233
 40
1
100
AcDbArc
 50
0
 51
90
  0
LINE
  5
D4
100
AcDbEntity
  8
Sketch038
  6
ByLayer
 62
  256
370
   -1
100
AcDbLine
 10
-73
 20
234
 11
72.99999999999999
 21
234
  0
ENDBLK
  5
61
330
5F
100
AcDbEntity
  8
0
100
AcDbBlockEnd
  0
BLOCK
  5
63
330
62
100
AcDbEntity
  8
0
100
AcDbBlockBegin
  2
flow_section_bottom_gasket-0
 70
    0
 10
0
 20
0
  3
flow_section_bottom_gasket-0
  1

  0
LINE
  5
D5
100
AcDbEntity
  8
Sketch038
  6
ByLayer
 62
  256
370
   -1
100
AcDbLine
 10
-58.5
 20
180
 11
-58.5
 21
-180
  0
LINE
  5
D6
100
AcDbEntity
  8
Sketch038
  6
ByLayer
 62
  256
370
   -1
100
AcDbLine
 10
-58.5
 20
-180
 11
58.5
 21
-180
  0
LINE
  5
D7
100
AcDbEntity
  8
Sketch038
  6
ByLayer
 62
  256
370
   -1
100
AcDbLine
 10
58.5
 20
-180
 11
58.5
 21
180
  0
LINE
  5
D8
100
AcDbEntity
  8
Sketch038
  6
ByLayer
 62
  256
370
   -1
100
AcDbLine
 10
58.5
 20
180
 11
-58.5
 21
180
  0
CIRCLE
  5
D9
100
AcDbEntity
  8
Sketch038
  6
ByLayer
 62
  256
370
   -1
100
AcDbCircle
 10
-67.69999999999999
 20
-227.7
 40
1.8669
  0
CIRCLE
  5
DA
100
AcDbEntity
  8
Sketch038
  6
ByLayer
 62
  256
370
   -1
100
AcDbCircle
 10
67.69999999999999
 20
-227.7
 40
1.8669
  0
CIRCLE
  5
DB
100
AcDbEntity
  8
Sketch038
  6
ByLayer
 62
  256
370
   -1
100
AcDbCircle
 10
-67.69999999999999
 20
-75.90000000000001
 40
1.8669
  0
CIRCLE
  5
DC
100
AcDbEntity
  8
Sketch038
  6
ByLayer
 62
  256
370
   -1
100
AcDbCircle
 10
67.69999999999999
 20
-75.90000000000001
 40
1.8669
  0
CIRCLE
  5
DD
100
AcDbEntity
  8
Sketch038
  6
ByLayer
 62
  256
370
   -1
100
AcDbCircle
 10
-67.69999999999999
 20
75.90000000000001
 40
1.8669
  0
CIRCLE
  5
DE
100
AcDbEntity
  8
Sketch038
  6
ByLayer
 62
  256
370
   -1
100
AcDbCircle
 10
67.69999999999999
 20
75.90000000000001
 40
1.8669
  0
CIRCLE
  5
DF
100
AcDbEntity
  8
Sketch038
  6
ByLayer
 62
  256
370
   -1
100
AcDbCircle
 10
-67.69999999999999
 20
227.7
 40
1.8669
  0
CIRCLE
  5
E0
100
AcDbEntity
  8
Sketch038
  6
ByLayer
 62
  256
370
   -1
100
AcDbCircle
 10
67.69999999999999
 20
227.7
 40
1.8669
  0
ARC
  5
E1
100
AcDbEntity
  8
Sketch038
  6
ByLayer
 62
  256
370
   -1
100
AcDbCircle
 10
-73
 20
233
 40
1
100
AcDbArc
 50
90
 51
180
  0
LINE
  5
E2
100
AcDbEntity
  8
Sketch038
  6
ByLayer
 62
  256
370
   -1
100
AcDbLine
 10
-74
 20
233
 11
-74
 21
-233
  0
ARC
  5
E3
100
AcDbEntity
  8
Sketch038
  6
ByLayer
 62
  256
370
   -1
100
AcDbCircle
 10
-73
 20
-233
 40
1
100
AcDbArc
 50
180
 51
-90
  0
LINE
  5
E4
100
AcDbEntity
  8
Sketch038
  6
ByLayer
 62
  256
370
   -1
100
AcDbLine
 10
-73
 20
-234
 11
73
 21
-234
  0
ARC
  5
E5
100
AcDbEntity
  8
Sketch038
  6
ByLayer
 62
  256
370
   -1
100
AcDbCircle
 10
73
 20
-233
 40
1
100
AcDbArc
 50
-90
 51
0
  0
LINE
  5
E6
100
AcDbEntity
  8
Sketch038
  6
ByLayer
 62
  256
370
   -1
100
AcDbLine
 10
74
 20
-233
 11
74
 21
233
  0
ARC
  5
E7
100
AcDbEntity
  8
Sketch038
  6
ByLayer
 62
  256
370
   -1
100
AcDbCircle
 10
73
 20
233
 40
1
100
AcDbArc
 50
0
 51
90
  0
LINE
  5
E8
100
AcDbEntity
  8
Sketch038
  6
ByLayer
 62
  256
370
   -1
100
AcDbLine
 10
-73
 20
234
 11
73
 21
234
  0
ENDBLK
  5
64
330
62
100
AcDbEntity
  8
0
100
AcDbBlockEnd
  0
BLOCK
  5
66
330
65
100
AcDbEntity
  8
0
100
AcDbBlockBegin
  2
entrance_section_gasket-1
 70
    0
 10
0
 20
0
  3
entrance_section_gasket-1
  1

  0
CIRCLE
  5
E9
100
AcDbEntity
  8
Sketch039
  6
ByLayer
 62
  256
370
   -1
100
AcDbCircle
 10
0
 20
7.300000000000011
 40
1.8669
  0
CIRCLE
  5
EA
100
AcDbEntity
  8
Sketch039
  6
ByLayer
 62
  256
370
   -1
100
AcDbCircle
 10
-67.69999999999999
 20
97.90000000000003
 40
1.8669
  0
CIRCLE
  5
EB
100
AcDbEntity
  8
Sketch039
  6
ByLayer
 62
  256
370
   -1
100
AcDbCircle
 10
67.69999999999999
 20
97.90000000000003
 40
1.8669
  0
ARC
  5
EC
100
AcDbEntity
  8
Sketch039
  6
ByLayer
 62
  256
370
   -1
100
AcDbCircle
 10
-56.5
 20
86.69999999999999
 40
2
100
AcDbArc
 50
90
 51
180
  0
LINE
  5
ED
100
AcDbEntity
  8
Sketch039
  6
ByLayer
 62
  256
370
   -1
100
AcDbLine
 10
-56.5
 20
88.69999999999999
 11
56.5
 21
88.69999999999999
  0
ARC
  5
EE
100
AcDbEntity
  8
Sketch039
  6
ByLayer
 62
  256
370
   -1
100
AcDbCircle
 10
56.5
 20
86.69999999999999
 40
2
100
AcDbArc
 50
0
 51
90
  0
LINE
  5
EF
100
AcDbEntity
  8
Sketch039
  6
ByLayer
 62
  256
370
   -1
100
AcDbLine
 10
58.5
 20
86.69999999999999
 11
58.5
 21
60.8458
  0
ARC
  5
F0
100
AcDbEntity
  8
Sketch039
  6
ByLayer
 62
  256
370
   -1
100
AcDbCircle
 10
48.5
 20
60.8458
 40
10
100
AcDbArc
 50
-56.3144
 51
0
  0
LINE
  5
F1
100
AcDbEntity
  8
Sketch039
  6
ByLayer
 62
  256
370
   -1
100
AcDbLine
 10
5.546359999999993
 20
20.19689999999997
 11
54.04640000000001
 21
52.52479999999997
  0
ARC
  5
F2
100
AcDbEntity
  8
Sketch039
  6
ByLayer
 62
  256
370
   -1
100
AcDbCircle
 10
0
 20
28.5179
 40
10
100
AcDbArc
 50
-123.686
 51
-56.3144
  0
LINE
  5
F3
100
AcDbEntity
  8
Sketch039
  6
ByLayer
 62
  256
370
   -1
100
AcDbLine
 10
-5.546359999999993
 20
20.19689999999997
 11
-54.04640000000001
 21
52.52479999999997
  0
ARC
  5
F4
100
AcDbEntity
  8
Sketch039
  6
ByLayer
 62
  256
370
   -1
100
AcDbCircle
 10
-48.5
 20
60.8458
 40
10
100
AcDbArc
 50
180
 51
-123.686
  0
LINE
  5
F5
100
AcDbEntity
  8
Sketch039
  6
ByLayer
 62
  256
370
   -1
100
AcDbLine
 10
-58.5
 20
86.69999999999999
 11
-58.5
 21
60.8458
  0
LINE
  5
F6
100
AcDbEntity
  8
Sketch039
  6
ByLayer
 62
  256
370
   -1
100
AcDbLine
 10
-74
 20
51.86680000000001
 11
-74
 21
103.2
  0
ARC
  5
F7
100
AcDbEntity
  8
Sketch039
  6
ByLayer
 62
  256
370
   -1
100
AcDbCircle
 10
-73
 20
103.2
 40
1
100
AcDbArc
 50
90
 51
180
  0
LINE
  5
F8
100
AcDbEntity
  8
Sketch039
  6
ByLayer
 62
  256
370
   -1
100
AcDbLine
 10
-73
 20
104.2
 11
73
 21
104.2
  0
ARC
  5
F9
100
AcDbEntity
  8
Sketch039
  6
ByLayer
 62
  256
370
   -1
100
AcDbCircle
 10
73
 20
103.2
 40
1
100
AcDbArc
 50
0
 51
90
  0
LINE
  5
FA
100
AcDbEntity
  8
Sketch039
  6
ByLayer
 62
  256
370
   -1
100
AcDbLine
 10
74
 20
103.2
 11
74
 21
51.86680000000001
  0
ARC
  5
FB
100
AcDbEntity
  8
Sketch039
  6
ByLayer
 62
  256
370
   -1
100
AcDbCircle
 10
65
 20
51.86680000000001
 40
9
100
AcDbArc
 50
-58.31860000000001
 51
-4.52346e-14
  0
LINE
  5
FC
100
AcDbEntity
  8
Sketch039
  6
ByLayer
 62
  256
370
   -1
100
AcDbLine
 10
69.72680000000003
 20
44.2079
 11
4.726760000000013
 21
4.092289999999991
  0
ARC
  5
FD
100
AcDbEntity
  8
Sketch039
  6
ByLayer
 62
  256
370
   -1
100
AcDbCircle
 10
0
 20
11.75110000000001
 40
9
100
AcDbArc
 50
-121.681
 51
-58.31860000000001
  0
LINE
  5
FE
100
AcDbEntity
  8
Sketch039
  6
ByLayer
 62
  256
370
   -1
100
AcDbLine
 10
-69.72680000000003
 20
44.2079
 11
-4.726760000000013
 21
4.092289999999991
  0
ARC
  5
FF
100
AcDbEntity
  8
Sketch039
  6
ByLayer
 62
  256
370
   -1
100
AcDbCircle
 10
-65
 20
51.86680000000001
 40
9
100
AcDbArc
 50
180
 51
-121.681
  0
ENDBLK
  5
67
330
65
100
AcDbEntity
  8
0
100
AcDbBlockEnd
  0
BLOCK
  5
69
330
68
100
AcDbEntity
  8
0
100
AcDbBlockBegin
  2
entrance_section_gasket-2
 70
    0
 10
0
 20
0
  3
entrance_section_gasket-2
  1

  0
CIRCLE
  5
100
100
AcDbEntity
  8
Sketch039
  6
ByLayer
 62
  256
370
   -1
100
AcDbCircle
 10
0
 20
7.300000000000011
 40
1.8669
  0
CIRCLE
  5
101
100
AcDbEntity
  8
Sketch039
  6
ByLayer
 62
  256
370
   -1
100
AcDbCircle
 10
-67.69999999999999
 20
97.89999999999998
 40
1.8669
  0
CIRCLE
  5
102
100
AcDbEntity
  8
Sketch039
  6
ByLayer
 62
  256
370
   -1
100
AcDbCircle
 10
67.69999999999999
 20
97.89999999999998
 40
1.8669
  0
ARC
  5
103
100
AcDbEntity
  8
Sketch039
  6
ByLayer
 62
  256
370
   -1
100
AcDbCircle
 10
-56.5
 20
86.69999999999999
 40
2
100
AcDbArc
 50
90
 51
180
  0
LINE
  5
104
100
AcDbEntity
  8
Sketch039
  6
ByLayer
 62
  256
370
   -1
100
AcDbLine
 10
-56.5
 20
88.69999999999999
 11
56.5
 21
88.69999999999999
  0
ARC
  5
105
100
AcDbEntity
  8
Sketch039
  6
ByLayer
 62
  256
370
   -1
100
AcDbCircle
 10
56.5
 20
86.69999999999999
 40
2
100
AcDbArc
 50
0
 51
90
  0
LINE
  5
106
100
AcDbEntity
  8
Sketch039
  6
ByLayer
 62
  256
370
   -1
100
AcDbLine
 10
58.5
 20
86.69999999999999
 11
58.5
 21
60.8458
  0
ARC
  5
107
100
AcDbEntity
  8
Sketch039
  6
ByLayer
 62
  256
370
   -1
100
AcDbCircle
 10
48.5
 20
60.8458
 40
10
100
AcDbArc
 50
-56.3144
 51
0
  0
LINE
  5
108
100
AcDbEntity
  8
Sketch039
  6
ByLayer
 62
  256
370
   -1
100
AcDbLine
 10
5.546359999999993
 20
20.19690000000003
 11
54.04640000000001
 21
52.52480000000003
  0
ARC
  5
109
100
AcDbEntity
  8
Sketch039
  6
ByLayer
 62
  256
370
   -1
100
AcDbCircle
 10
0
 20
28.5179
 40
10
100
AcDbArc
 50
-123.686
 51
-56.3144
  0
LINE
  5
10A
100
AcDbEntity
  8
Sketch039
  6
ByLayer
 62
  256
370
   -1
100
AcDbLine
 10
-5.546359999999993
 20
20.19690000000003
 11
-54.04640000000001
 21
52.52480000000003
  0
ARC
  5
10B
100
AcDbEntity
  8
Sketch039
  6
ByLayer
 62
  256
370
   -1
100
AcDbCircle
 10
-48.5
 20
60.8458
 40
10
100
AcDbArc
 50
180
 51
-123.686
  0
LINE
  5
10C
100
AcDbEntity
  8
Sketch039
  6
ByLayer
 62
  256
370
   -1
100
AcDbLine
 10
-58.5
 20
86.69999999999999
 11
-58.5
 21
60.8458
  0
LINE
  5
10D
100
AcDbEntity
  8
Sketch039
  6
ByLayer
 62
  256
370
   -1
100
AcDbLine
 10
-74
 20
51.86680000000001
 11
-74
 21
103.2
  0
ARC
  5
10E
100
AcDbEntity
  8
Sketch039
  6
ByLayer
 62
  256
370
   -1
100
AcDbCircle
 10
-73
 20
103.2
 40
1
100
AcDbArc
 50
90
 51
180
  0
LINE
  5
10F
100
AcDbEntity
  8
Sketch039
  6
ByLayer
 62
  256
370
   -1
100
AcDbLine
 10
-73
 20
104.2
 11
73
 21
104.2
  0
ARC
  5
110
100
AcDbEntity
  8
Sketch039
  6
ByLayer
 62
  256
370
   -1
100
AcDbCircle
 10
73
 20
103.2
 40
1
100
AcDbArc
 50
0
 51
90
  0
LINE
  5
111
100
AcDbEntity
  8
Sketch039
  6
ByLayer
 62
  256
370
   -1
100
AcDbLine
 10
74
 20
103.2
 11
74
 21
51.86680000000001
  0
ARC
  5
112
100
AcDbEntity
  8
Sketch039
  6
ByLayer
 62
  256
370
   -1
100
AcDbCircle
 10
65
 20
51.86680000000001
 40
9
100
AcDbArc
 50
-58.31860000000001
 51
-4.52346e-14
  0
LINE
  5
113
100
AcDbEntity
  8
Sketch039
  6
ByLayer
 62
  256
370
   -1
100
AcDbLine
 10
69.72679999999997
 20
44.2079
 11
4.726760000000013
 21
4.092289999999991
  0
ARC
  5
114
100
AcDbEntity
  8
Sketch039
  6
ByLayer
 62
  256
370
   -1
100
AcDbCircle
 10
0
 20
11.75110000000001
 40
9
100
AcDbArc
 50
-121.681
 51
-58.31860000000001
  0
LINE
  5
115
100
AcDbEntity
  8
Sketch039
  6
ByLayer
 62
  256
370
   -1
100
AcDbLine
 10
-69.7268
 20
44.2079
 11
-4.726760000000013
 21
4.092289999999991
  0
ARC
  5
116
100
AcDbEntity
  8
Sketch039
  6
ByLayer
 62
  256
370
   -1
100
AcDbCircle
 10
-65
 20
51.86680000000001
 40
9
100
AcDbArc
 50
180
 51
-121.681
  0
ENDBLK
  5
6A
330
68
100
AcDbEntity
  8
0
100
AcDbBlockEnd
  0
ENDSEC
  0
SECTION
  2
ENTITIES
  0
LWPOLYLINE
  5
117
100
AcDbEntity
  8
material
  6
ByLayer
 62
  256
370
   -1
100
AcDbPolyline
 90
    4
 70
    1
 43
0
 10
0
 20
0
 10
609.5999999999999
 20
0
 10
609.5999999999999
 20
304.8
 10
0
 20
304.8
  0
LINE
  5
118
100
AcDbEntity
  8
vector
  6
ByLayer
 62
  256
370
   -1
100
AcDbLine
 10
62.45660874402392
 20
168.8630203450206
 11
422.4566087440239
 21
168.8630203450206
  0
LINE
  5
119
100
AcDbEntity
  8
vector
  6
ByLayer
 62
  256
370
   -1
100
AcDbLine
 10
422.4566087440239
 20
168.8630203450206
 11
422.4566087440239
 21
285.8630203450206
  0
LINE
  5
11A
100
AcDbEntity
  8
vector
  6
ByLayer
 62
  256
370
   -1
100
AcDbLine
 10
422.4566087440239
 20
285.8630203450206
 11
62.45660874402392
 21
285.8630203450206
  0
LINE
  5
11B
100
AcDbEntity
  8
vector
  6
ByLayer
 62
  256
370
   -1
100
AcDbLine
 10
62.45660874402392
 20
285.8630203450206
 11
62.45660874402392
 21
168.8630203450206
  0
CIRCLE
  5
11C
100
AcDbEntity
  8
vector
  6
ByLayer
 62
  256
370
   -1
100
AcDbCircle
 10
470.1566087440239
 20
159.6630203450206
 40
1.8669
  0
CIRCLE
  5
11D
100
AcDbEntity
  8
vector
  6
ByLayer
 62
  256
370
   -1
100
AcDbCircle
 10
470.1566087440239
 20
295.0630203450206
 40
1.8669
  0
CIRCLE
  5
11E
100
AcDbEntity
  8
vector
  6
ByLayer
 62
  256
370
   -1
100
AcDbCircle
 10
318.3566087440239
 20
159.6630203450206
 40
1.8669
  0
CIRCLE
  5
11F
100
AcDbEntity
  8
vector
  6
ByLayer
 62
  256
370
   -1
100
AcDbCircle
 10
318.3566087440239
 20
295.0630203450206
 40
1.8669
  0
CIRCLE
  5
120
100
AcDbEntity
  8
vector
  6
ByLayer
 62
  256
370
   -1
100
AcDbCircle
 10
166.5566087440239
 20
159.6630203450206
 40
1.8669
  0
CIRCLE
  5
121
100
AcDbEntity
  8
vector
  6
ByLayer
 62
  256
370
   -1
100
AcDbCircle
 10
166.5566087440239
 20
295.0630203450206
 40
1.8669
  0
CIRCLE
  5
122
100
AcDbEntity
  8
vector
  6
ByLayer
 62
  256
370
   -1
100
AcDbCircle
 10
14.75660874402394
 20
159.6630203450206
 40
1.8669
  0
CIRCLE
  5
123
100
AcDbEntity
  8
vector
  6
ByLayer
 62
  256
370
   -1
100
AcDbCircle
 10
14.75660874402394
 20
295.0630203450206
 40
1.8669
  0
ARC
  5
124
100
AcDbEntity
  8
vector
  6
ByLayer
 62
  256
370
   -1
100
AcDbCircle
 10
9.456608744023924
 20
154.3630203450206
 40
1
100
AcDbArc
 50
180
 51
270
  0
LINE
  5
125
100
AcDbEntity
  8
vector
  6
ByLayer
 62
  256
370
   -1
100
AcDbLine
 10
9.456608744023924
 20
153.3630203450206
 11
475.4566087440239
 21
153.3630203450206
  0
ARC
  5
126
100
AcDbEntity
  8
vector
  6
ByLayer
 62
  256
370
   -1
100
AcDbCircle
 10
475.4566087440239
 20
154.3630203450206
 40
1
100
AcDbArc
 50
270
 51
0
  0
LINE
  5
127
100
AcDbEntity
  8
vector
  6
ByLayer
 62
  256
370
   -1
100
AcDbLine
 10
476.4566087440239
 20
154.3630203450206
 11
476.4566087440239
 21
300.3630203450206
  0
ARC
  5
128
100
AcDbEntity
  8
vector
  6
ByLayer
 62
  256
370
   -1
100
AcDbCircle
 10
475.4566087440239
 20
300.3630203450206
 40
1
100
AcDbArc
 50
0
 51
90
  0
LINE
  5
129
100
AcDbEntity
  8
vector
  6
ByLayer
 62
  256
370
   -1
100
AcDbLine
 10
475.4566087440239
 20
301.3630203450206
 11
9.456608744023924
 21
301.3630203450206
  0
ARC
  5
12A
100
AcDbEntity
  8
vector
  6
ByLayer
 62
  256
370
   -1
100
AcDbCircle
 10
9.456608744023924
 20
300.3630203450206
 40
1
100
AcDbArc
 50
90
 51
180
  0
LINE
  5
12B
100
AcDbEntity
  8
vector
  6
ByLayer
 62
  256
370
   -1
100
AcDbLine
 10
8.456608744023924
 20
154.3630203450206
 11
8.456608744023924
 21
300.3630203450206
  0
LINE
  5
12C
100
AcDbEntity
  8
vector
  6
ByLayer
 62
  256
370
   -1
100
AcDbLine
 10
62.5824701738575
 20
18.45285978628768
 11
422.5824701738575
 21
18.45285978628765
  0
LINE
  5
12D
100
AcDbEntity
  8
vector
  6
ByLayer
 62
  256
370
   -1
100
AcDbLine
 10
422.5824701738575
 20
18.45285978628765
 11
422.5824701738575
 21
135.4528597862876
  0
LINE
  5
12E
100
AcDbEntity
  8
vector
  6
ByLayer
 62
  256
370
   -1
100
AcDbLine
 10
422.5824701738575
 20
135.4528597862876
 11
62.5824701738575
 21
135.4528597862877
  0
LINE
  5
12F
100
AcDbEntity
  8
vector
  6
ByLayer
 62
  256
370
   -1
100
AcDbLine
 10
62.5824701738575
 20
135.4528597862877
 11
62.5824701738575
 21
18.45285978628768
  0
CIRCLE
  5
130
100
AcDbEntity
  8
vector
  6
ByLayer
 62
  256
370
   -1
100
AcDbCircle
 10
470.2824701738575
 20
9.252859786287658
 40
1.8669
  0
CIRCLE
  5
131
100
AcDbEntity
  8
vector
  6
ByLayer
 62
  256
370
   -1
100
AcDbCircle
 10
470.2824701738575
 20
144.6528597862876
 40
1.8669
  0
CIRCLE
  5
132
100
AcDbEntity
  8
vector
  6
ByLayer
 62
  256
370
   -1
100
AcDbCircle
 10
318.4824701738575
 20
9.252859786287672
 40
1.8669
  0
CIRCLE
  5
133
100
AcDbEntity
  8
vector
  6
ByLayer
 62
  256
370
   -1
100
AcDbCircle
 10
318.4824701738575
 20
144.6528597862877
 40
1.8669
  0
CIRCLE
  5
134
100
AcDbEntity
  8
vector
  6
ByLayer
 62
  256
370
   -1
100
AcDbCircle
 10
166.6824701738575
 20
9.252859786287672
 40
1.8669
  0
CIRCLE
  5
135
100
AcDbEntity
  8
vector
  6
ByLayer
 62
  256
370
   -1
100
AcDbCircle
 10
166.6824701738575
 20
144.6528597862877
 40
1.8669
  0
CIRCLE
  5
136
100
AcDbEntity
  8
vector
  6
ByLayer
 62
  256
370
   -1
100
AcDbCircle
 10
14.88247017385751
 20
9.252859786287686
 40
1.8669
  0
CIRCLE
  5
137
100
AcDbEntity
  8
vector
  6
ByLayer
 62
  256
370
   -1
100
AcDbCircle
 10
14.88247017385751
 20
144.6528597862877
 40
1.8669
  0
ARC
  5
138
100
AcDbEntity
  8
vector
  6
ByLayer
 62
  256
370
   -1
100
AcDbCircle
 10
9.582470173857502
 20
3.952859786287675
 40
1
100
AcDbArc
 50
180
 51
270
  0
LINE
  5
139
100
AcDbEntity
  8
vector
  6
ByLayer
 62
  256
370
   -1
100
AcDbLine
 10
9.582470173857502
 20
2.952859786287675
 11
475.5824701738575
 21
2.952859786287647
  0
ARC
  5
13A
100
AcDbEntity
  8
vector
  6
ByLayer
 62
  256
370
   -1
100
AcDbCircle
 10
475.5824701738575
 20
3.952859786287647
 40
1
100
AcDbArc
 50
270
 51
0
  0
LINE
  5
13B
100
AcDbEntity
  8
vector
  6
ByLayer
 62
  256
370
   -1
100
AcDbLine
 10
476.5824701738575
 20
3.952859786287647
 11
476.5824701738575
 21
149.9528597862876
  0
ARC
  5
13C
100
AcDbEntity
  8
vector
  6
ByLayer
 62
  256
370
   -1
100
AcDbCircle
 10
475.5824701738575
 20
149.9528597862876
 40
1
100
AcDbArc
 50
0
 51
90
  0
LINE
  5
13D
100
AcDbEntity
  8
vector
  6
ByLayer
 62
  256
370
   -1
100
AcDbLine
 10
475.5824701738575
 20
150.9528597862876
 11
9.582470173857502
 21
150.9528597862877
  0
ARC
  5
13E
100
AcDbEntity
  8
vector
  6
ByLayer
 62
  256
370
   -1
100
AcDbCircle
 10
9.582470173857502
 20
149.9528597862877
 40
1
100
AcDbArc
 50
90
 51
180
  0
LINE
  5
13F
100
AcDbEntity
  8
vector
  6
ByLayer
 62
  256
370
   -1
100
AcDbLine
 10
8.582470173857502
 20
3.952859786287675
 11
8.582470173857502
 21
149.9528597862877
  0
CIRCLE
  5
140
100
AcDbEntity
  8
vector
  6
ByLayer
 62
  256
370
   -1
100
AcDbCircle
 10
579.4074564247104
 20
77.16811531785839
 40
1.8669
  0
CIRCLE
  5
141
100
AcDbEntity
  8
vector
  6
ByLayer
 62
  256
370
   -1
100
AcDbCircle
 10
488.8074564247103
 20
9.468115317858349
 40
1.8669
  0
CIRCLE
  5
142
100
AcDbEntity
  8
vector
  6
ByLayer
 62
  256
370
   -1
100
AcDbCircle
 10
488.8074564247103
 20
144.8681153178584
 40
1.8669
  0
ARC
  5
143
100
AcDbEntity
  8
vector
  6
ByLayer
 62
  256
370
   -1
100
AcDbCircle
 10
500.0074564247103
 20
20.66811531785839
 40
2
100
AcDbArc
 50
180
 51
270
  0
LINE
  5
144
100
AcDbEntity
  8
vector
  6
ByLayer
 62
  256
370
   -1
100
AcDbLine
 10
498.0074564247103
 20
20.66811531785839
 11
498.0074564247103
 21
133.6681153178584
  0
ARC
  5
145
100
AcDbEntity
  8
vector
  6
ByLayer
 62
  256
370
   -1
100
AcDbCircle
 10
500.0074564247103
 20
133.6681153178584
 40
2
100
AcDbArc
 50
90
 51
180
  0
LINE
  5
146
100
AcDbEntity
  8
vector
  6
ByLayer
 62
  256
370
   -1
100
AcDbLine
 10
500.0074564247103
 20
135.6681153178584
 11
525.8616564247103
 21
135.6681153178584
  0
ARC
  5
147
100
AcDbEntity
  8
vector
  6
ByLayer
 62
  256
370
   -1
100
AcDbCircle
 10
525.8616564247103
 20
125.6681153178584
 40
10
100
AcDbArc
 50
33.68559999999999
 51
90
  0
LINE
  5
148
100
AcDbEntity
  8
vector
  6
ByLayer
 62
  256
370
   -1
100
AcDbLine
 10
566.5105564247104
 20
82.71447531785844
 11
534.1826564247104
 21
131.2145153178583
  0
ARC
  5
149
100
AcDbEntity
  8
vector
  6
ByLayer
 62
  256
370
   -1
100
AcDbCircle
 10
558.1895564247103
 20
77.16811531785839
 40
10
100
AcDbArc
 50
326.314
 51
33.68559999999999
  0
LINE
  5
14A
100
AcDbEntity
  8
vector
  6
ByLayer
 62
  256
370
   -1
100
AcDbLine
 10
566.5105564247104
 20
71.62175531785846
 11
534.1826564247104
 21
23.12171531785845
  0
ARC
  5
14B
100
AcDbEntity
  8
vector
  6
ByLayer
 62
  256
370
   -1
100
AcDbCircle
 10
525.8616564247103
 20
28.66811531785839
 40
10
100
AcDbArc
 50
270
 51
326.314
  0
LINE
  5
14C
100
AcDbEntity
  8
vector
  6
ByLayer
 62
  256
370
   -1
100
AcDbLine
 10
500.0074564247103
 20
18.66811531785839
 11
525.8616564247103
 21
18.66811531785839
  0
LINE
  5
14D
100
AcDbEntity
  8
vector
  6
ByLayer
 62
  256
370
   -1
100
AcDbLine
 10
534.8406564247103
 20
3.168115317858394
 11
483.5074564247103
 21
3.168115317858394
  0
ARC
  5
14E
100
AcDbEntity
  8
vector
  6
ByLayer
 62
  256
370
   -1
100
AcDbCircle
 10
483.5074564247103
 20
4.168115317858394
 40
1
100
AcDbArc
 50
180
 51
270
  0
LINE
  5
14F
100
AcDbEntity
  8
vector
  6
ByLayer
 62
  256
370
   -1
100
AcDbLine
 10
482.5074564247103
 20
4.168115317858394
 11
482.5074564247103
 21
150.1681153178584
  0
ARC
  5
150
100
AcDbEntity
  8
vector
  6
ByLayer
 62
  256
370
   -1
100
AcDbCircle
 10
483.5074564247103
 20
150.1681153178584
 40
1
100
AcDbArc
 50
90
 51
180
  0
LINE
  5
151
100
AcDbEntity
  8
vector
  6
ByLayer
 62
  256
370
   -1
100
AcDbLine
 10
483.5074564247103
 20
151.1681153178584
 11
534.8406564247103
 21
151.1681153178584
  0
ARC
  5
152
100
AcDbEntity
  8
vector
  6
ByLayer
 62
  256
370
   -1
100
AcDbCircle
 10
534.8406564247103
 20
142.1681153178584
 40
9
100
AcDbArc
 50
31.6814
 51
89.99999999999994
  0
LINE
  5
153
100
AcDbEntity
  8
vector
  6
ByLayer
 62
  256
370
   -1
100
AcDbLine
 10
542.4995564247104
 20
146.8949153178584
 11
582.6151664247103
 21
81.89487531785841
  0
ARC
  5
154
100
AcDbEntity
  8
vector
  6
ByLayer
 62
  256
370
   -1
100
AcDbCircle
 10
574.9563564247104
 20
77.16811531785839
 40
9
100
AcDbArc
 50
328.319
 51
31.6814
  0
LINE
  5
155
100
AcDbEntity
  8
vector
  6
ByLayer
 62
  256
370
   -1
100
AcDbLine
 10
542.4995564247104
 20
7.441315317858368
 11
582.6151664247103
 21
72.44135531785838
  0
ARC
  5
156
100
AcDbEntity
  8
vector
  6
ByLayer
 62
  256
370
   -1
100
AcDbCircle
 10
534.8406564247103
 20
12.16811531785839
 40
9
100
AcDbArc
 50
270
 51
328.319
  0
CIRCLE
  5
157
100
AcDbEntity
  8
vector
  6
ByLayer
 62
  256
370
   -1
100
AcDbCircle
 10
579.9016501373666
 20
227.6053160393463
 40
1.8669
  0
CIRCLE
  5
158
100
AcDbEntity
  8
vector
  6
ByLayer
 62
  256
370
   -1
100
AcDbCircle
 10
489.3016501373666
 20
159.9053160393462
 40
1.8669
  0
CIRCLE
  5
159
100
AcDbEntity
  8
vector
  6
ByLayer
 62
  256
370
   -1
100
AcDbCircle
 10
489.3016501373666
 20
295.3053160393463
 40
1.8669
  0
ARC
  5
15A
100
AcDbEntity
  8
vector
  6
ByLayer
 62
  256
370
   -1
100
AcDbCircle
 10
500.5016501373665
 20
171.1053160393463
 40
2
100
AcDbArc
 50
180
 51
270
  0
LINE
  5
15B
100
AcDbEntity
  8
vector
  6
ByLayer
 62
  256
370
   -1
100
AcDbLine
 10
498.5016501373665
 20
171.1053160393463
 11
498.5016501373665
 21
284.1053160393463
  0
ARC
  5
15C
100
AcDbEntity
  8
vector
  6
ByLayer
 62
  256
370
   -1
100
AcDbCircle
 10
500.5016501373665
 20
284.1053160393463
 40
2
100
AcDbArc
 50
90
 51
180
  0
LINE
  5
15D
100
AcDbEntity
  8
vector
  6
ByLayer
 62
  256
370
   -1
100
AcDbLine
 10
500.5016501373665
 20
286.1053160393463
 11
526.3558501373665
 21
286.1053160393463
  0
ARC
  5
15E
100
AcDbEntity
  8
vector
  6
ByLayer
 62
  256
370
   -1
100
AcDbCircle
 10
526.3558501373665
 20
276.1053160393463
 40
10
100
AcDbArc
 50
33.68559999999999
 51
90
  0
LINE
  5
15F
100
AcDbEntity
  8
vector
  6
ByLayer
 62
  256
370
   -1
100
AcDbLine
 10
567.0047501373666
 20
233.1516760393463
 11
534.6768501373666
 21
281.6517160393462
  0
ARC
  5
160
100
AcDbEntity
  8
vector
  6
ByLayer
 62
  256
370
   -1
100
AcDbCircle
 10
558.6837501373665
 20
227.6053160393463
 40
10
100
AcDbArc
 50
326.314
 51
33.68559999999999
  0
LINE
  5
161
100
AcDbEntity
  8
vector
  6
ByLayer
 62
  256
370
   -1
100
AcDbLine
 10
567.0047501373666
 20
222.0589560393464
 11
534.6768501373666
 21
173.5589160393463
  0
ARC
  5
162
100
AcDbEntity
  8
vector
  6
ByLayer
 62
  256
370
   -1
100
AcDbCircle
 10
526.3558501373665
 20
179.1053160393463
 40
10
100
AcDbArc
 50
270
 51
326.314
  0
LINE
  5
163
100
AcDbEntity
  8
vector
  6
ByLayer
 62
  256
370
   -1
100
AcDbLine
 10
500.5016501373665
 20
169.1053160393463
 11
526.3558501373665
 21
169.1053160393463
  0
LINE
  5
164
100
AcDbEntity
  8
vector
  6
ByLayer
 62
  256
370
   -1
100
AcDbLine
 10
535.3348501373665
 20
153.6053160393463
 11
484.0016501373665
 21
153.6053160393463
  0
ARC
  5
165
100
AcDbEntity
  8
vector
  6
ByLayer
 62
  256
370
   -1
100
AcDbCircle
 10
484.0016501373665
 20
154.6053160393463
 40
1
100
AcDbArc
 50
180
 51
270
  0
LINE
  5
166
100
AcDbEntity
  8
vector
  6
ByLayer
 62
  256
370
   -1
100
AcDbLine
 10
483.0016501373665
 20
154.6053160393463
 11
483.0016501373665
 21
300.6053160393463
  0
ARC
  5
167
100
AcDbEntity
  8
vector
  6
ByLayer
 62
  256
370
   -1
100
AcDbCircle
 10
484.0016501373665
 20
300.6053160393463
 40
1
100
AcDbArc
 50
90
 51
180
  0
LINE
  5
168
100
AcDbEntity
  8
vector
  6
ByLayer
 62
  256
370
   -1
100
AcDbLine
 10
484.0016501373665
 20
301.6053160393463
 11
535.3348501373665
 21
301.6053160393463
  0
ARC
  5
169
100
AcDbEntity
  8
vector
  6
ByLayer
 62
  256
370
   -1
100
AcDbCircle
 10
535.3348501373665
 20
292.6053160393463
 40
9
100
AcDbArc
 50
31.6814
 51
89.99999999999994
  0
LINE
  5
16A
100
AcDbEntity
  8
vector
  6
ByLayer
 62
  256
370
   -1
100
AcDbLine
 10
542.9937501373666
 20
297.3321160393462
 11
583.1093601373665
 21
232.3320760393463
  0
ARC
  5
16B
100
AcDbEntity
  8
vector
  6
ByLayer
 62
  256
370
   -1
100
AcDbCircle
 10
575.4505501373666
 20
227.6053160393463
 40
9
100
AcDbArc
 50
328.319
 51
31.6814
  0
LINE
  5
16C
100
AcDbEntity
  8
vector
  6
ByLayer
 62
  256
370
   -1
100
AcDbLine
 10
542.9937501373666
 20
157.8785160393464
 11
583.1093601373665
 21
222.8785560393463
  0
ARC
  5
16D
100
AcDbEntity
  8
vector
  6
ByLayer
 62
  256
370
   -1
100
AcDbCircle
 10
535.3348501373665
 20
162.6053160393463
 40
9
100
AcDbArc
 50
270
 51
328.319
  0
ENDSEC
  0
SECTION
  2
OBJECTS
  0
DICTIONARY
  5
C
330
0
100
AcDbDictionary
281
    1
  3
ACAD_GROUP
350
D
  0
DICTIONARY
  5
D
330
C
100
AcDbDictionary
281
    1
  0
ENDSEC
  0
EOF
